<?xml version="1.0" encoding="utf-8"?>
<!-- Generator: Adobe Illustrator 15.1.0, SVG Export Plug-In . SVG Version: 6.00 Build 0)  -->
<!DOCTYPE svg PUBLIC "-//W3C//DTD SVG 1.1//EN" "http://www.w3.org/Graphics/SVG/1.1/DTD/svg11.dtd">
<svg version="1.1" xmlns="http://www.w3.org/2000/svg" xmlns:xlink="http://www.w3.org/1999/xlink" x="0px" y="0px" width="70px"
	 height="70px" viewBox="0 0 70 70" enable-background="new 0 0 70 70" xml:space="preserve">
<g id="Layer_2">
	<rect fill="#EF3F3F" width="70" height="70"/>
</g>
<g id="Layer_1">
	<path fill="#FFFFFF" d="M27.905,27.862c-0.109,0.109-0.342,0.163-0.698,0.163h-1.248c-0.356,0-0.594-0.054-0.713-0.163
		c-0.119-0.108-0.178-0.342-0.178-0.699v-2.317h-2.704v2.733c0,1.743,0.921,2.614,2.763,2.614h2.882
		c1.861,0,2.792-0.871,2.792-2.614v-5.347c0-1.743-0.911-2.614-2.733-2.614h-2.168c-0.356,0-0.594-0.054-0.713-0.164
		c-0.119-0.108-0.178-0.341-0.178-0.698v-4.129c0-0.356,0.059-0.589,0.178-0.698c0.119-0.108,0.356-0.163,0.713-0.163h1.248
		c0.356,0,0.594,0.055,0.713,0.163c0.119,0.109,0.178,0.342,0.178,0.698v2.317h2.703V14.21c0-1.743-0.921-2.614-2.763-2.614h-2.912
		c-1.842,0-2.763,0.872-2.763,2.614v4.902c0,1.763,0.901,2.644,2.704,2.644h2.198c0.356,0,0.589,0.055,0.698,0.164
		c0.108,0.109,0.163,0.341,0.163,0.698v4.545C28.068,27.52,28.013,27.753,27.905,27.862z"/>
	<path fill="#FFFFFF" d="M41.912,13.914l1.693,9.803h-3.238L41.912,13.914z M47.408,30.193l-3.535-18.597h-3.892l-3.297,18.597
		h2.674l0.683-4.308h3.921l0.743,4.308H47.408z"/>
	<path fill="#FFFFFF" d="M30.979,36.492c0-1.742-0.921-2.614-2.763-2.614h-3.179c-1.842,0-2.763,0.872-2.763,2.614v13.369
		c0,1.763,0.921,2.644,2.763,2.644h3.179c1.842,0,2.763-0.881,2.763-2.644v-6.952h-4.189v2.079h1.485v4.545
		c0,0.356-0.059,0.589-0.178,0.698c-0.119,0.109-0.356,0.164-0.713,0.164H25.87c-0.356,0-0.594-0.054-0.713-0.164
		c-0.119-0.109-0.178-0.342-0.178-0.698V36.848c0-0.356,0.059-0.589,0.178-0.698c0.119-0.109,0.356-0.164,0.713-0.164h1.515
		c0.356,0,0.594,0.055,0.713,0.164c0.119,0.109,0.178,0.341,0.178,0.698v2.466h2.704V36.492z"/>
	<path fill="#FFFFFF" d="M40.872,43.949h4.278V41.78h-4.278v-5.734h5.169v-2.169h-7.873v18.597h8.081v-2.168h-5.377V43.949z"/>
	<path fill-rule="evenodd" clip-rule="evenodd" fill="#FFFFFF" d="M22.438,55.465h23.767v2.376H22.438V55.465z"/>
</g>
</svg>
